<svg width="1600" height="1100" viewBox="0 0 1600 1100" fill="none" xmlns="http://www.w3.org/2000/svg">
  <rect width="1600" height="1100" fill="#DDE7F2"/>
  <rect y="0" width="1600" height="510" fill="#BFE3F7"/>
  <rect y="510" width="1600" height="195" fill="#5CB9D6"/>
  <rect y="705" width="1600" height="395" fill="#EBDDBB"/>
  <path d="M0 780C105 755 179 739 274 742C370 745 477 797 569 800C674 803 731 756 843 752C960 748 1055 809 1176 804C1312 798 1408 743 1600 762V1100H0V780Z" fill="#E4D4A5"/>
  <circle cx="122" cy="105" r="55" fill="#FFD77A" opacity="0.9"/>

  <g opacity="0.92">
    <rect x="1040" y="154" width="300" height="126" rx="18" fill="#F7FBFE"/>
    <text x="1074" y="205" fill="#153150" font-family="Inter, Arial" font-size="34" font-weight="700">RescueArc rack concept</text>
    <text x="1074" y="246" fill="#536075" font-family="Inter, Arial" font-size="24">Guard stays elevated. First move is a better throw.</text>
  </g>

  <g>
    <rect x="592" y="415" width="26" height="330" rx="13" fill="#D39E4D"/>
    <rect x="718" y="415" width="26" height="330" rx="13" fill="#D39E4D"/>
    <rect x="540" y="404" width="256" height="24" rx="12" fill="#C48D34"/>
    <rect x="520" y="744" width="296" height="32" rx="16" fill="#B88433"/>
    <rect x="548" y="362" width="200" height="54" rx="18" fill="#F5F0E3"/>
    <rect x="575" y="280" width="148" height="88" rx="18" fill="#F7F8FA"/>
    <circle cx="650" cy="250" r="34" fill="#D7A66D"/>
    <rect x="622" y="286" width="54" height="85" rx="22" fill="#D84B46"/>
    <rect x="675" y="292" width="48" height="18" rx="9" transform="rotate(12 675 292)" fill="#1D375A"/>
    <rect x="582" y="300" width="38" height="16" rx="8" transform="rotate(-22 582 300)" fill="#1D375A"/>
    <rect x="620" y="365" width="18" height="90" rx="9" transform="rotate(18 620 365)" fill="#D7A66D"/>
    <rect x="674" y="364" width="18" height="90" rx="9" transform="rotate(-14 674 364)" fill="#D7A66D"/>
    <rect x="608" y="452" width="22" height="120" rx="11" fill="#1D375A"/>
    <rect x="666" y="452" width="22" height="120" rx="11" fill="#1D375A"/>
  </g>

  <g>
    <rect x="456" y="452" width="50" height="256" rx="24" fill="#184260"/>
    <rect x="405" y="470" width="50" height="220" rx="24" fill="#224E71"/>
    <rect x="360" y="488" width="50" height="184" rx="24" fill="#2A5C82"/>
    <rect x="835" y="452" width="50" height="256" rx="24" fill="#184260"/>
    <rect x="886" y="470" width="50" height="220" rx="24" fill="#224E71"/>
    <rect x="931" y="488" width="50" height="184" rx="24" fill="#2A5C82"/>

    <g fill="#F6B444" stroke="#153150" stroke-width="8">
      <path d="M462 480C482 456 519 447 541 467C560 485 563 515 546 536C530 556 491 563 468 546C445 529 443 504 462 480Z"/>
      <path d="M413 497C434 474 471 465 493 485C513 503 515 533 499 553C482 573 444 580 422 563C398 545 395 520 413 497Z"/>
      <path d="M366 516C386 493 423 484 446 503C465 521 468 550 451 571C434 592 396 599 373 581C350 563 348 539 366 516Z"/>
      <path d="M839 480C858 456 896 447 918 467C938 485 941 515 923 536C907 556 869 563 846 546C823 529 821 504 839 480Z"/>
      <path d="M889 497C909 474 947 465 969 485C988 503 991 533 974 553C958 573 919 580 897 563C874 545 871 520 889 497Z"/>
      <path d="M934 516C954 493 991 484 1014 503C1033 521 1036 550 1019 571C1002 592 964 599 941 581C918 563 916 539 934 516Z"/>
    </g>
  </g>

  <g>
    <path d="M1016 567C1152 556 1269 595 1358 682" stroke="#153150" stroke-width="8" stroke-dasharray="18 18"/>
    <path d="M1358 682L1320 680L1346 653" stroke="#153150" stroke-width="8" stroke-linecap="round" stroke-linejoin="round"/>
    <circle cx="1364" cy="690" r="18" fill="#D84B46"/>
  </g>

  <g>
    <circle cx="1390" cy="765" r="48" fill="#F7D9B1"/>
    <path d="M1329 876C1346 818 1375 790 1390 790C1406 790 1434 818 1451 876" fill="#324E73"/>
    <path d="M1317 900C1340 857 1366 834 1392 834C1418 834 1442 857 1464 900" fill="#F28D3A"/>
    <path d="M1313 905C1361 925 1422 925 1470 905" stroke="#153150" stroke-width="8" stroke-linecap="round"/>
    <path d="M1411 760C1462 736 1510 731 1560 742" stroke="#D84B46" stroke-width="8" stroke-dasharray="16 16"/>
  </g>

  <text x="284" y="1012" fill="#153150" font-family="Georgia, serif" font-size="44">Six rack-ready rescue throws. Elevated response. Faster first contact.</text>
</svg>
