<svg width="1600" height="1100" viewBox="0 0 1600 1100" fill="none" xmlns="http://www.w3.org/2000/svg">
  <rect width="1600" height="1100" fill="#F7F5F0"/>
  <text x="110" y="142" fill="#153150" font-family="Georgia, serif" font-size="60">Prototype architecture — first believable build path</text>
  <text x="110" y="197" fill="#536075" font-family="Inter, Arial" font-size="28">Working assumption: soft throw shell + CO₂ cartridge + puncture inflator + water trigger + backup delay.</text>

  <g transform="translate(118 294)">
    <path d="M210 122C303 25 470 8 582 87C682 156 694 295 610 381C525 470 350 489 239 403C125 315 118 211 210 122Z" fill="#F6B444" stroke="#153150" stroke-width="12"/>
    <path d="M254 142C330 75 452 70 535 130C613 186 620 283 552 346C484 408 359 418 278 360C197 302 188 203 254 142Z" fill="#FCE5A8" stroke="#153150" stroke-width="6" opacity="0.45"/>
    <circle cx="430" cy="235" r="84" fill="#F8F6F1" stroke="#153150" stroke-width="10"/>
    <rect x="416" y="194" width="28" height="84" rx="14" fill="#153150"/>
    <circle cx="430" cy="184" r="24" fill="#D84B46" stroke="#153150" stroke-width="6"/>
    <rect x="340" y="210" width="74" height="52" rx="18" fill="#1F8FA1" opacity="0.88"/>
    <rect x="450" y="210" width="108" height="52" rx="18" fill="#D39E4D" opacity="0.88"/>
    <rect x="408" y="282" width="44" height="72" rx="18" fill="#324E73"/>
  </g>

  <g stroke="#153150" stroke-width="6" stroke-linecap="round">
    <path d="M770 390H942"/>
    <path d="M770 488H1010"/>
    <path d="M770 588H1004"/>
    <path d="M770 694H972"/>
    <path d="M770 790H952"/>
  </g>

  <g fill="#153150" font-family="Inter, Arial" font-size="28">
    <text x="970" y="398">Soft throw shell / grip geometry</text>
    <text x="1038" y="496">Folded high-vis bladder</text>
    <text x="1032" y="596">CO₂ cartridge chamber</text>
    <text x="1000" y="702">Puncture inflator + valve path</text>
    <text x="980" y="798">Water trigger / backup delay module</text>
  </g>

  <g transform="translate(1020 312)">
    <rect width="396" height="514" rx="34" fill="#FFFFFF" stroke="#D9E0EA" stroke-width="6"/>
    <text x="34" y="62" fill="#153150" font-family="Inter, Arial" font-size="30" font-weight="700">What to bench test immediately</text>
    <g fill="#536075" font-family="Inter, Arial" font-size="24">
      <text x="38" y="120">• accidental deploy during carry</text>
      <text x="38" y="166">• failed puncture / no gas release</text>
      <text x="38" y="212">• partial inflation</text>
      <text x="38" y="258">• premature inflation in air</text>
      <text x="38" y="304">• bladder snag on shell exit</text>
      <text x="38" y="350">• impact hardness on target zone</text>
      <text x="38" y="396">• visibility and grabability in chop</text>
      <text x="38" y="442">• re-arm and cartridge swap friction</text>
    </g>
  </g>

  <text x="116" y="1004" fill="#153150" font-family="Georgia, serif" font-size="44">If this can’t survive false-fire / no-fire / impact-safety tests, the company story collapses early.</text>
</svg>
